<?xml version="1.0" encoding="utf-8"?>
<!-- Generator: Adobe Illustrator 16.0.0, SVG Export Plug-In . SVG Version: 6.00 Build 0)  -->
<!DOCTYPE svg PUBLIC "-//W3C//DTD SVG 1.1//EN" "http://www.w3.org/Graphics/SVG/1.1/DTD/svg11.dtd">
<svg version="1.1" id="Camada_1" xmlns="http://www.w3.org/2000/svg" xmlns:xlink="http://www.w3.org/1999/xlink" x="0px" y="0px"
	 width="63.235px" height="73.961px" viewBox="0 0 63.235 73.961" enable-background="new 0 0 63.235 73.961" xml:space="preserve">
<g>
	<g>
		<path fill="#F5AF39" d="M28.979,38.683c0,0,0.198,5.474-3.372,9.832h10.002c0,0-3.627-4.323-3.627-9.832H28.979z"/>
		<path fill="#F5AF39" d="M30.607,37.96c0,2.84-2.513,4.888-5.59,5.142c-3.422,0.284-5.59-2.302-5.59-5.142
			c0-2.841,2.279-5.022,5.59-5.143C28.92,32.676,30.607,35.12,30.607,37.96z"/>
		<path fill="#F5AF39" d="M30.43,37.79c0,2.841,2.528,4.888,5.625,5.143c3.443,0.284,5.624-2.302,5.624-5.143
			c0-2.84-2.294-5.021-5.624-5.142C32.128,32.507,30.43,34.95,30.43,37.79z"/>
		<path fill="#F5AF39" d="M30.639,23.555c2.84,0.025,5.158,1.414,5.387,4.305c0.136,1.704-0.956,4.094-2.064,6.003
			c-0.982,1.693-1.892,3.018-3.227,3.006c-1.305-0.012-2.075-1.129-3.084-2.561c-1.187-1.684-2.51-3.831-2.561-5.511
			C24.98,25.133,27.799,23.53,30.639,23.555z"/>
	</g>
	<polygon fill="none" stroke="#000000" stroke-miterlimit="10" points="8.482,49.416 8.684,24.304 30.531,11.923 52.177,24.653 
		51.976,49.764 30.128,62.146 	"/>
</g>
</svg>
